<?xml version="1.0" encoding="UTF-8"?>
<svg id="Layer_1" data-name="Layer 1" xmlns="http://www.w3.org/2000/svg" viewBox="0 0 474.25 496">
  <defs>
    <style>
      .cls-1 {
        fill: #231f20;
      }
    </style>
  </defs>
  <path class="cls-1" d="M359.16,228.93c1.19-2.75,1.75-5.55,1.67-8.46l-.09-4.22-3.42,2.48c-6.14,4.43-13.57,6.01-22.62,4.77,5.5-5.06,7.39-9.55,5.63-13.4-4.52-9.89-31.37-8.1-53-3.58l.51,4.38c14.41-.39,19.68,7.7,25.28,16.29,3.69,5.64,7.5,11.5,13.99,14.76,6.22,3.13,13.85,3.43,23.74,.89-6.87,9.89-17.9,15.15-33.49,15.98,3.31-4.97,2.73-8.75,1.42-11.21-5.34-10.13-30.3-11.88-53.88-8.48,3.98-5.07,9.34-8.6,16.24-10.75l7.47-2.32-7.58-1.94c-18.99-4.88-36.37-4.01-51.72,2.59,4.62-11.63,12.28-21.08,23.31-28.78l-1.59-4c-58.94,8.56-66.51,40.52-65.77,58.81,1.3,33.86,21.48,51.6,37.71,65.85,10.17,8.93,18.95,16.64,20.79,26.13,1.36,7.08-2.02,12.9-9.52,16.37-16.22,7.51-51.63,2.37-80.04-32.28,7.37-24.28,.54-48.47-9.78-59.1-4.35-4.46-9.14-6.22-13.51-4.95-3.48,1.01-7.98,4.37-11.06,14.2-7.88-18.56,4.6-36.52,18.7-46.84,8-5.87,8.69-12.64,5.95-16.42-3.48-4.83-12.76-6.04-25.71,1.37,3.68-8.53,10.1-15.23,19.63-20.42,.77-.42,1.56-.83,2.37-1.22,4-1.98,8.5-3.71,13.52-5.24,8.01-2.45,13.27-6.86,14.05-11.81,.47-2.99-.76-5.77-3.41-7.62-3.91-2.74-11.62-3.65-22.55,.66,10.33-12.94,23.63-20.71,41.18-24.18,11.9,9.03,23.91,14.96,36.71,18.1l1.71-4.02c-28.08-17.75-49.31-41.67-63.26-71.22,19.67,20.45,42.88,33.02,70.55,38.31l4.64,.89-2.29-4.15c-8.46-15.28-13.22-31.81-14.2-49.24,13.76,24.43,30.23,44.58,49.07,59.99,21.91,17.95,47.25,29.64,75.36,34.8-11.45,12.29-21.52,8.05-32.14,3.58-5.56-2.34-11.32-4.76-17.21-4.66l-4.8,.08,3.18,3.61c3.7,4.19,6.59,9.09,8.56,14.55l.61,1.66,1.76-.21c2.51-.31,5.02-.84,7.45-1.35,4.92-1.03,9.59-2.01,14.16-1.32,4.77,.71,6.68,2.44,9.09,4.61,4.79,4.32,10.22,9.21,35.41,8.12,11.85-.53,19.16,2.45,19.57,7.97,.51,7.1-10.19,18.35-28.36,21.61Z"/>
  <path class="cls-1" d="M246.86,74.22c-4,0-7.99,.13-12.12,.4,3.78,6.26,7.83,12.29,12.07,17.97h.05c41.11,0,79.77,16.01,108.84,45.09,29.08,29.08,45.09,67.73,45.09,108.84,0,23.93-5.33,46.87-15.84,68.19l-1.23,2.49-2.16-1.75c-21.31-17.27-45.29-25.82-73.06-25.99,26.7,11.55,46.93,29.9,57.56,52.46,8.53,18.05,10.93,38.25,7.18,60.13,39.39-35.68,61.85-86.16,61.85-139.53,0-103.83-84.45-188.3-188.25-188.3Z"/>
  <path class="cls-1" d="M158.1,120.71c-9.51,6.72-18.13,14.43-25.75,22.91-.21,.23-.42,.45-.61,.68-.08,.09-.17,.19-.25,.28-.04,.04-.07,.08-.11,.13-4.43,5.02-8.51,10.31-12.22,15.83h-30.81c7.3-11.33,15.86-21.9,25.57-31.51,.05-.05,.12-.1,.17-.16,.03-.04,.07-.07,.1-.1l.09-.09s.04-.05,.07-.07c10.15-9.7,21.39-18.23,33.44-25.48,.69,1.34,1.39,2.66,2.12,3.97h0s.01,.02,.01,.03c.96,1.76,1.94,3.49,2.96,5.22t.01,.02s.01,.01,.02,.02c1.65,2.82,3.39,5.59,5.17,8.32Z"/>
  <path class="cls-1" d="M204.62,240.92c.49,.23,.97,.45,1.46,.67,.31-1.39,.7-2.79,1.15-4.18-1.49,.45-2.31,1.86-2.61,3.51Z"/>
  <path class="cls-1" d="M310.7,409.81c-.07,.9-.17,1.81-.26,2.71-.1,.16-.23,.31-.36,.46v-2.39c.18-.27,.39-.53,.62-.77Z"/>
  <path class="cls-1" d="M149.45,365.79c-.91-.74-1.8-1.49-2.69-2.25-34.3-29.34-53.89-71.76-53.89-117.03,0-11.98,1.4-23.78,4.09-35.2h-.34c.01-.06,.02-.13,.04-.18H63.62c-1.45,4.59-2.79,9.5-3.92,14.72-.28,1.3-.53,2.57-.78,3.84h-.08c-.24,1.42-.46,2.85-.68,4.28-1.94,11.85-2.31,22.36-2.08,30.83,.75,58.18,27.6,110.09,69.38,144.53,7.44,6.17,15.38,11.78,23.72,16.76v-20.83h43.5v-15.77c-13.89-4.24-28.58-11.78-43.22-23.69Zm192.7-2.46c-7.24-33.24-38.54-49.48-68.83-65.19-17-8.82-33.05-17.15-45.23-28.32-11.51-10.54-17.93-22.44-19.49-36.19-.52,1.25-.96,2.51-1.37,3.77,.31-.09,.65-.17,1.02-.17-.22,1.64-.63,3.25-1.28,4.76-.3-.14-.61-.27-.91-.41-2.46,11.07-.5,22.21,5.9,33.72,8.22,14.8,23.56,29.93,46.94,46.26,14.74,10.29,22.09,23,20.67,35.8-1.29,11.6-9.66,22.14-22.75,28.96h9.75v18.92h34.26c.13-.5,.25-1,.38-1.51,.09,.5,.21,1,.32,1.51h4.51c-.27-1.06-.43-2.13-.65-3.2,.8,.18,1.61,.37,2.4,.56-.56,.86-1.1,1.75-1.63,2.63h3.91v3.36c.26,.08,.53,.17,.71,.22-.03,.32-.06,.66-.09,.98,.27-.28,.56-.54,.87-.78-.07,1.28-.42,2.5-1.13,3.49-.06,.6-.11,1.2-.19,1.8-.05-.01-.11-.02-.17-.04v2.13c.08-.19,.17-.37,.25-.54-.07,.53-.16,1.07-.25,1.6v1.87c.68-.44,1.36-.89,2.07-1.3-.54,.86-1.25,1.56-2.07,2.1v11.81c3.55-2.21,6.92-4.71,10.06-7.58,10.35-9.45,18.25-21.88,21.58-35.56,2.02-8.33,2.27-17.08,.44-25.48Zm-16.04-21.04c-.2-1.13-.44-2.25-.59-3.4,2.21,1.72,3.28,4.4,3.93,7.1-1.89-.01-3.84,.16-5.66-.43-.45-1.76,1.15-2.48,2.31-3.27Zm7.04,26.32c-2.68-.3-4.71-2.05-3.88-5.05,2.13,.86,3.29,2.86,3.88,5.05Zm-9.79-18.45c1.88,1.09,3.54,2.53,4.95,4.21-1.78,.27-3.55,.51-5.32,.78,.14-1.66,.25-3.32,.37-5Zm3.01,13.87c-1.69-.29-3.39-.59-5.08-.86,.22-1.57,.66-3.09,1.24-4.57,1.87,1.3,3.39,3.08,3.84,5.43Zm-8.54-34.63c2.34,.86,3.47,3.31,4.39,5.5-1.81,.32-3.62,.6-5.43,.83-.18-2.01-1.47-5.4,1.03-6.32Zm-1.74,9.7c2.79,.04,5.47,1.79,5.53,4.9-1.89,.11-3.78,.21-5.68,.32,.05-1.75,.1-3.48,.15-5.23Zm4.95,12.71c-2.27,.69-4.58,1.18-6.88,1.69,.45-1.93,.97-3.84,1.59-5.72,1.92,1.09,3.74,2.4,5.29,4.02Zm-10.04,10.87c1.67,1.79,2.24,4.23,2.43,6.65-1.63-.26-3.32-.38-4.81-1.14-.16-1.57,1.33-1.98,2.44-2.5-.02-1-.07-2-.05-3.01Zm2.02-2.8c.18-1.06,.27-2.12,.39-3.2,1.87,.33,3.62,1.14,4.84,2.68-1.75,.22-3.49,.38-5.23,.52Zm-5.02-16.01c-.43-2.41-1.14-4.98,.02-7.32,2.03,1.17,4.17,2.1,6.24,3.18-2.2,1.22-4.7,1.98-6.26,4.14Zm.43-8.96c-1.92-2.18-2.21-4.93-.24-7.24,2.31,1.06,4.57,2.22,6.77,3.48-2.16,1.3-4.38,2.49-6.53,3.76Zm-1.59-12.27c1.46,.05,2.93,.14,4.39,.21-.74,1.09-1.48,2.15-2.24,3.21-.78-.34-1.57-.69-2.34-1.06,.05-.78,.11-1.57,.19-2.36Zm-.54,23.52c2.25,.31,4.5,.69,6.71,1.2-1.65,2.3-4.57,1.89-6.97,1.72,.06-.97,.13-1.95,.26-2.93Zm2.4,12.63c-1.6,.04-3.2,.02-4.79-.02,.11-1.76-.54-4.86,1.75-5.31,1.9,1.06,2.55,3.32,3.04,5.33Zm-9.47,14.95c.65-1.61,1.36-3.18,2.14-4.72,1.52,1.2,2.9,2.58,4.01,4.2-2.05,.28-4.11,.4-6.16,.52Zm4.81,15.23c-1.23-.34-2.46-.69-3.68-1.06,.65-.62,.98-2.14,2.08-1.86,.64,.91,1.1,1.93,1.6,2.92Zm-2.03-22.9c.28-1.49,.56-2.99,.84-4.48,2.39,.42,4.46,2.29,4.1,4.99-1.65-.17-3.29-.34-4.93-.5Zm-6.35-55.12c-.18,.82-.36,1.61-.53,2.41-1.61-.44-3.22-.88-4.81-1.37,1.57-1.22,3.46-1.78,5.34-1.05Zm-13.19-4.54c-.68,1.39-1.38,2.77-2.06,4.14-1.74-.56-3.48-1.07-5.22-1.59,1.83-2.2,4.46-3.61,7.28-2.55Zm-73.37-60.57c1.3,1.58,2.05,3.53,2.2,5.6-1.4-.56-2.91-1.02-4.05-2.07-.36-1.51,.98-2.55,1.85-3.53Zm.88,12.97c1.28-1.22,2.6-2.39,3.97-3.48,.78,2.11,1.39,4.29,1.88,6.49-2.06-.76-4.02-1.77-5.85-3.01Zm8.49,6.47c1.33,2.18,2.4,4.53,3.18,6.97-2.16-.38-4.32-.88-6.43-1.46,.53-2.13,1.69-4,3.25-5.51Zm2.81,14.19c.69-1.58,1.71-2.96,2.62-4.42,.3,.04,.92,.13,1.22,.17,.02,2.6,1.47,4.67,3.28,6.33-2.32-.62-5.68,.23-7.13-2.08Zm4.92-4.74c.18-1,.44-2.01,.64-3.01,1.38,1.44,2.93,2.71,4.36,4.1-1.67-.33-3.33-.7-5-1.09Zm5.94,14.48c-1.48-1.94-1.02-4.3,1.05-5.55,.83,1.63,1.86,3.28,3.81,3.5-1.69,.47-3.29,1.22-4.85,2.05Zm1.06-9.51c.19-1.1,.67-2.12,1.1-3.15,1.7,1.37,3.14,3.12,3.87,5.25-1.68-.47-3.99-.34-4.97-2.1Zm9.16,19.33c-.79-.96-1.58-1.93-2.35-2.92,2.26-2.5-.43-5.84,1.14-8.73,1.43,1.01,2.8,2.12,4.16,3.24-1.05,.82-2.14,1.58-3.04,2.56-.47,2.49,2.27,3.22,3.85,4.25-1.26,.52-2.52,1.05-3.75,1.59Zm6.94-9.42c.98,.47,2,.89,3.03,1.26-.37,.96-.71,1.91-1.07,2.85-.84-.25-1.68-.52-2.52-.79,.18-1.11,.37-2.22,.55-3.32Zm6.22,18.79c-1.35-.73-2.72-1.45-4.09-2.14,.53-1.3,1.09-2.6,1.61-3.91-2.09-1.53-4.38-3.51-2.46-6.26,1.89,.76,3.83,1.44,5.79,2.02-1.22,1.19-3.66,2.71-2.32,4.7,1.74,.84,3.61,1.29,5.41,1.91-1.32,1.23-2.63,2.46-3.95,3.68Zm3.74-12.82c2.59-.25,5.58,.79,5.11,4.06,1.81,.41,3.55,1.05,5.25,1.83-1.16,1.51-2.28,3.04-3.29,4.66-1.46-.61-2.92-1.22-4.37-1.86,.8-1.55,1.6-3.08,2.41-4.63-2.15-.59-4.69-1.43-5.11-4.06Zm6.45,16.04c.52-1.57,1.03-3.15,1.51-4.73,2.16,.54,4.29,1.22,6.33,2.14-.96,1.52-1.92,3.04-2.86,4.57-1.66-.65-3.32-1.31-4.98-1.99Zm3.7,7.53c.41-1.41,.82-2.82,1.21-4.23,2.08,.24,4.14,.51,6.22,.76-.7,1.58-1.38,3.17-2.03,4.77-1.79-.48-3.6-.9-5.4-1.3Zm9.76,7.35c-1.41-.72-2.85-1.39-4.28-2.08,1.88-1.65,4.34-2.5,6.62-1.2-.77,1.1-1.56,2.18-2.34,3.28Zm3.48-4.23c.34-1.34,1.11-2.69,.92-4.11-1.15-1.19-2.68-1.87-4.07-2.68,.56-1.17,1.07-2.37,1.83-3.43,1.84-.55,3.63,.53,5.34,1.09-.98,1.74-1.74,3.6-2.23,5.55,1.77,.24,3.55,.42,5.34,.61-1.21,1.51-2.41,3.01-3.52,4.6-1.21-.53-2.41-1.08-3.62-1.63Zm10.31,3.45c-1.12,1.46-2.21,2.95-3.22,4.47-1.09-.47-2.17-.92-3.26-1.37,.3-1.35,.64-2.68,.97-4.01,1.84,.31,3.67,.61,5.51,.91Zm-3.07,6.12c1.02,.72,3.78,.6,3.45,2.11-2.08,1.39-4.53,2.02-6.86,2.75,.9-1.78,2.1-3.38,3.41-4.86Zm-.34,13.53c-.04-2.14-.31-4.44,1-6.3,1.59,1.29,3.31,2.38,4.95,3.59-2.06,.75-4.33,1.07-5.96,2.72Zm3.06-26.82c.89-1.21,1.78-2.45,2.67-3.67,1.82,.82,3.64,1.69,5.46,2.53-1.67,1.46-2.76,3.44-2.98,5.72,1.43,.06,2.87,.1,4.32,.15,.06,.22,.2,.68,.26,.91-1.23,.9-2.47,1.83-3.66,2.78-1.02-.34-2.04-.69-3.06-1.05,.69-1.25,1.37-2.53,2.08-3.78-.9-2.16-3.15-2.78-5.08-3.59Zm11.94,12.96c-1.54,1.18-3.08,2.33-4.58,3.54-1.06-.74-2.11-1.46-3.16-2.2,.94-1.18,1.87-2.37,2.78-3.6,1.64,.77,3.3,1.49,4.96,2.25Zm-4.48,5.47c1.32,1.43,2.95,2.49,4.69,3.28-2.72,.36-5.45,.7-8.2,.66,1.14-1.34,2.35-2.61,3.5-3.94Zm-2.93,9.18c1.25,.24,2.5,.51,3.75,.78-.78,.84-1.57,1.65-2.36,2.46-.63-.41-1.25-.82-1.88-1.22,.16-.67,.32-1.34,.49-2.02Zm1.01,30.24c1.57,.53,2.97,1.47,3.81,2.96-1.53-.05-3.05-.15-4.58-.25,.3-.9,.53-1.8,.77-2.71Zm6.37,20.51c-1.41-.72-2.85-1.39-4.28-2.08,1.88-1.64,4.34-2.5,6.62-1.2-.77,1.1-1.56,2.2-2.34,3.28Zm-.47-13.85c.41-1.32,.99-2.57,1.69-3.76,1.44,1.37,2.5,3.12,2.57,5.21-1.42-.49-2.84-.97-4.27-1.44Zm2.56-6.67c.34-1.41,.67-2.83,.99-4.25,1.48,1.19,2.72,2.66,3.7,4.31-1.57-.02-3.14-.05-4.69-.05Zm6.28,24.31c-1.25-1.01-1.62-2.59-1.61-4.17,1.34,.95,1.82,2.53,1.61,4.17Zm-2.01-16.22c1.71,1.03,2.44,2.93,2.64,4.88-2.26-.63-3.78-2.4-2.64-4.88Zm2.68-7.68c1.72,.96,2.24,2.92,2.4,4.79-1.52-1.13-2.73-2.73-2.4-4.79Zm1.87,11.71c1.65,1.09,1.11,3.08,.73,4.7-.88-1.4-1.08-3.07-.73-4.7Zm1.16,28.42c1.25,.19,.47,2.59-.63,1.81-.57-.54-.21-1.81,.63-1.81Zm-1.01,3.67c-.2-.97,1.91-1.51,2.04-.46-.34,.7-1.47,1.02-2.04,.46Zm.49-7.9c.31-1.51,.63-3.02,.97-4.53,.56,1.48,1.09,2.97,1.59,4.47-.86,.03-1.7,.04-2.56,.05Zm1.92-43.3c.62-.82,.72-2.61,2.02-2.48,.89,.9,1.59,1.98,2.34,3.01-1.46-.18-2.92-.34-4.36-.53Zm3.4,28.25c.71,1.58,1.46,3.17,1.79,4.89-.86,.65-1.87,.99-2.82,1.4,.25-2.11,.6-4.21,1.03-6.29Zm-.07-5.43c.17-1.68,.34-3.37,.47-5.05,.3,.88,.67,1.72,1.01,2.58,2.07,1.65,.25,2.14-1.48,2.47Zm.02,20.35c.75-1.94,1.34-3.94,2.17-5.84,.56,1.37,1.11,2.76,1.69,4.12-1.31,.54-2.58,1.15-3.87,1.72Zm-.34-36.59c1.88-1.64,4.34-2.5,6.62-1.2-.78,1.1-1.57,2.2-2.34,3.28-1.42-.72-2.85-1.39-4.28-2.08Zm8.05,8.72c-.51,1.15-.99,2.31-1.45,3.48-.51-1.2-.92-2.46-1.37-3.68,.94,.05,1.88,.13,2.82,.2Zm-1.37,10.8c.92,1.49,1.01,3.28,.96,5.01-.78,.09-1.57,.18-2.34,.26,.55-1.72,.95-3.49,1.38-5.27Zm.84,14.2c.34-1.92,.82-3.83,1.37-5.71,1.45,2.05,1.07,4.71-1.37,5.71Zm3.28-12.3c.18-2.12,.25-4.25,.24-6.4,.38,.05,1.13,.16,1.51,.21,.14,2.1,.29,4.2,.37,6.31-.71-.04-1.41-.08-2.11-.13Zm.09-20.23c1.68,.85,2.51,2.54,2.57,4.43-1.6-.92-2.3-2.64-2.57-4.43Zm-.95-22.76c2.12,.78,3.05,2.91,3.58,4.99-1.92-1-3.58-2.59-3.58-4.99Zm5.89,18.12c-1.24-1.42-1.77-3.28-1.67-5.18,2.06,.93,1.8,3.28,1.67,5.18Zm-167.31,68.86c3.92,1.38,7.89,2.58,11.88,3.68,3.78,1.05,7.6,1.95,11.43,2.73v-6.41h-23.3Zm97.07,0v6.41c3.83-.77,7.64-1.68,11.43-2.73,3.98-1.1,7.96-2.3,11.88-3.68h-23.3Zm-86.62,0c4.19,1.56,8.43,2.93,12.7,4.1v-4.1h-12.7Zm-27.04-328.96s-.01-.01-.02-.02t-.01-.02c-1.25-1.57-2.24-3.33-2.96-5.22,0-.01-.01-.01-.01-.02h0s-2.12-3.98-2.12-3.98c-12.05,7.24-23.29,15.77-33.44,25.48-.03,.02-.05,.05-.07,.07l-.09,.09s-.07,.06-.1,.1c-.05,.05-.12,.1-.17,.16-9.71,9.61-18.27,20.18-25.57,31.51h30.55c3.81-5.58,7.97-10.87,12.48-15.83,.04-.04,.07-.08,.11-.13,.08-.09,.17-.19,.25-.28,.19-.23,.4-.45,.61-.68,7.62-8.49,16.23-16.19,25.75-22.91-1.79-2.73-3.52-5.5-5.17-8.32Z"/>
  <path class="cls-1" d="M140.8,195.42v1.22h-2.37c.77-.42,1.56-.83,2.37-1.22Z"/>
  <polygon class="cls-1" points="136.62 164.72 136.62 192.46 109.28 192.46 109.28 175.04 71.06 175.04 71.06 164.72 136.62 164.72"/>
  <rect class="cls-1" x="39.55" y="179.22" width="65.55" height="27.74"/>
  <polygon class="cls-1" points="262.4 390.53 262.4 405.25 236.17 405.25 236.17 421.32 223.1 421.32 223.1 405.25 196.85 405.25 196.85 390.53 262.4 390.53"/>
  <g>
    <polygon class="cls-1" points="218.92 409.44 218.92 421.32 192.67 421.32 192.67 437.17 153.35 437.17 153.35 409.44 218.92 409.44"/>
    <path class="cls-1" d="M306.08,405.41c-.01-.05-.03-.1-.03-.16h.13c-.03,.05-.06,.1-.09,.16Z"/>
    <polygon class="cls-1" points="305.9 409.44 305.9 437.17 266.59 437.17 266.59 421.32 240.35 421.32 240.35 409.44 305.9 409.44"/>
  </g>
  <rect class="cls-1" x="196.85" y="425.5" width="65.55" height="27.73"/>
</svg>
